<?xml version="1.0" encoding="utf-8"?>
<!-- Generator: Adobe Illustrator 17.0.0, SVG Export Plug-In . SVG Version: 6.00 Build 0)  -->
<!DOCTYPE svg PUBLIC "-//W3C//DTD SVG 1.1//EN" "http://www.w3.org/Graphics/SVG/1.1/DTD/svg11.dtd">
<svg version="1.1" id="Capa_1" xmlns="http://www.w3.org/2000/svg" xmlns:xlink="http://www.w3.org/1999/xlink" x="0px" y="0px"
	 width="720px" height="1280px" viewBox="0 0 720 1280" enable-background="new 0 0 720 1280" xml:space="preserve">
<g id="aDqy4o.tif">
	<g>
		<path d="M8.034,858.509c0-135.025,0-270.05,0-405.076c0.452-1.238,1.04-2.443,1.336-3.717
			c5.833-25.147,21.064-41.901,45.267-50.545c4.038-1.442,8.289-2.288,12.442-3.41c194.528,0,389.056,0,583.584,0
			c0.804,0.383,1.569,0.944,2.416,1.125c36.1,7.701,57.551,33.877,57.557,70.454c0.023,125.807,0.067,251.614-0.13,377.42
			c-0.012,7.889-0.973,16.097-3.282,23.607c-8.999,29.276-36.303,47.773-69.415,47.776c-165.607,0.015-331.215,0.008-496.822,0.006
			c-22.188,0-44.378,0.199-66.562-0.076c-28.75-0.355-54.299-19.338-63.153-46.509C10.083,865.915,9.108,862.196,8.034,858.509z
			 M358.916,799.728c86.019,0,172.038,0.024,258.057-0.013c29.762-0.013,48.479-18.676,48.49-48.336
			c0.034-88.078,0.033-176.156,0-264.234c-0.011-29.531-18.981-48.526-48.505-48.531c-172.267-0.027-344.534-0.03-516.8,0.003
			c-29.884,0.006-48.602,18.548-48.623,48.226c-0.062,88.535-0.041,177.071,0.036,265.606c0.004,4.535,0.274,9.211,1.378,13.579
			c5.287,20.919,22.696,33.668,45.851,33.681C185.505,799.755,272.211,799.727,358.916,799.728z"/>
		<path fill="#FFFFFF" d="M256.615,950.832c0,21.978-0.111,43.012,0.097,64.043c0.04,4.004-1.25,6.089-4.821,7.806
			c-11.114,5.34-21.885,11.418-33.127,16.457c-6.253,2.803-7.618,7.372-7.188,13.145c0.435,5.838,3.573,9.917,9.452,11.126
			c3.541,0.728,7.23,1.026,10.852,1.028c81.195,0.055,162.39-0.042,243.585,0.158c9.226,0.023,16.95-3.26,24.258-8.009
			c7.167-4.657,7.407-8.764,0.266-13.582c-11.538-7.785-23.459-15.025-35.44-22.119c-3.398-2.012-4.766-4.067-4.714-8.028
			c0.213-16.465,0.089-32.934,0.089-49.402c0-4.244,0-8.489,0-12.625C391.742,950.832,324.583,950.832,256.615,950.832z"/>
		<path d="M256.615,950.832c67.969,0,135.127,0,203.31,0c0,4.136,0,8.38,0,12.625c0,16.468,0.124,32.937-0.089,49.402
			c-0.051,3.96,1.316,6.016,4.714,8.028c11.982,7.094,23.902,14.334,35.44,22.119c7.141,4.818,6.901,8.925-0.266,13.582
			c-7.309,4.749-15.032,8.032-24.258,8.009c-81.194-0.2-162.39-0.103-243.585-0.158c-3.623-0.003-7.311-0.3-10.852-1.028
			c-5.879-1.209-9.017-5.288-9.452-11.126c-0.43-5.773,0.935-10.342,7.188-13.145c11.241-5.04,22.013-11.117,33.127-16.457
			c3.571-1.716,4.861-3.802,4.821-7.806C256.504,993.844,256.615,972.81,256.615,950.832z"/>
		<path d="M490.195,625.836c0,6.692,0,13.011,0,19.683c-5.779,0-10.927,0-17.009,0c0-6.59,0-13.083,0-19.802
			c-23.813-3.022-37.079-16.408-42.316-39.393c8.752-2.298,17.24-4.526,26.226-6.885c0.68,2.044,1.229,3.682,1.77,5.324
			c4.597,13.961,17.695,20.496,31.69,15.851c6.6-2.191,10.028-6.826,10.711-13.627c0.668-6.653-1.79-11.7-7.989-14.468
			c-5.829-2.603-11.78-4.935-17.697-7.338c-5.285-2.147-10.732-3.944-15.871-6.394c-17.573-8.377-25.71-22.812-23.688-41.482
			c2.112-19.504,12.768-31.846,31.899-36.262c3.887-0.897,5.556-2.285,5.216-6.289c-0.268-3.16-0.054-6.361-0.054-10.032
			c5.767,0,11.097,0,17.01,0c0,4.908,0,9.626,0,14.95c11.359,2.023,21.804,5.584,28.688,14.92
			c3.837,5.204,6.557,11.232,10.241,17.697c-8.83,3.605-16.352,6.676-24.301,9.921c-1.886-3.453-3.506-6.897-5.551-10.067
			c-4.626-7.168-11.172-10.556-19.822-9.397c-6.443,0.863-11.649,5.557-12.705,11.707c-1.164,6.78,0.62,12.446,7.262,15.382
			c12.101,5.349,24.459,10.126,36.478,15.647c10.976,5.042,18.171,13.597,20.975,25.544c5.884,25.069-7.731,47.074-32.802,53.009
			C496.121,624.611,493.663,625.092,490.195,625.836z"/>
		<path d="M356.11,498.458c-11.874,0-23.75,0.079-35.623-0.026c-9.518-0.084-14.744-6.338-14.801-17.399
			c-0.057-11.119,5.131-17.626,14.501-17.665c24.434-0.101,48.868-0.1,73.301-0.002c9.315,0.037,14.527,6.607,14.453,17.71
			c-0.074,11.035-5.323,17.281-14.839,17.358C380.772,498.533,368.441,498.459,356.11,498.458z"/>
	</g>
</g>
<path d="M238.068,536.907c11.871,0,143.274-0.053,155.145,0.016c9.69,0.056,14.707,5.995,14.727,17.226
	c0.02,11.195-5.092,17.404-14.583,17.426c-24.427,0.055-168.387-0.103-192.813,0.098c-6.763,0.056-11.416-2.926-12.708-9.048
	c-1.129-5.349-1.166-11.296-0.071-16.648c1.25-6.107,5.839-9.283,12.635-9.143C212.952,537.093,225.512,536.907,238.068,536.907z"/>
<path d="M238.068,603.011c11.871,0,143.274-0.053,155.145,0.016c9.69,0.056,14.707,5.995,14.727,17.226
	c0.02,11.195-5.092,17.404-14.583,17.426c-24.427,0.055-168.387-0.103-192.813,0.098c-6.763,0.056-11.416-2.926-12.708-9.049
	c-1.129-5.348-1.166-11.296-0.071-16.648c1.25-6.107,5.839-9.283,12.635-9.143C212.952,603.197,225.512,603.011,238.068,603.011z"/>
<path d="M238.068,669.115c11.871,0,268.053-0.053,279.924,0.016c9.69,0.056,14.708,5.995,14.727,17.226
	c0.02,11.195-5.092,17.404-14.583,17.426c-24.427,0.055-293.166-0.103-317.592,0.098c-6.763,0.056-11.416-2.926-12.708-9.049
	c-1.129-5.348-1.166-11.296-0.071-16.648c1.25-6.107,5.839-9.283,12.635-9.143C212.952,669.3,225.512,669.115,238.068,669.115z"/>
<path d="M238.068,735.218c11.871,0,268.053-0.053,279.924,0.016c9.69,0.056,14.708,5.995,14.727,17.226
	c0.02,11.195-5.092,17.404-14.583,17.426c-24.427,0.055-293.166-0.103-317.592,0.098c-6.763,0.056-11.416-2.926-12.708-9.049
	c-1.129-5.348-1.166-11.296-0.071-16.648c1.25-6.107,5.839-9.283,12.635-9.143C212.952,735.404,225.512,735.219,238.068,735.218z"/>
</svg>
