<?xml version="1.0" encoding="utf-8"?>
<!-- Generator: Adobe Illustrator 17.0.0, SVG Export Plug-In . SVG Version: 6.00 Build 0)  -->
<!DOCTYPE svg PUBLIC "-//W3C//DTD SVG 1.1//EN" "http://www.w3.org/Graphics/SVG/1.1/DTD/svg11.dtd">
<svg version="1.1" id="Capa_1" xmlns="http://www.w3.org/2000/svg" xmlns:xlink="http://www.w3.org/1999/xlink" x="0px" y="0px"
	 width="720px" height="1280px" viewBox="0 0 720 1280" enable-background="new 0 0 720 1280" xml:space="preserve">
<g id="_x39_pNJA0.tif">
	<g>
		<path d="M366.415,246.5c17.033,3.671,34.738,5.474,50.987,11.324c90.316,32.52,143.82,96.848,151.751,192.452
			c7.72,93.064-33.471,163.792-113.61,211.673c-2.59,1.547-5.269,2.945-7.888,4.443c-0.26,0.149-0.395,0.515-1.185,1.601
			c2.739,1.003,5.306,2.004,7.913,2.889c43.58,14.802,82.657,37.373,116.8,68.254c15.102,13.66,16.288,34.499,3.361,48.592
			c-12.971,14.141-33.322,14.758-48.722,1.142c-32.338-28.59-69.191-48.792-111.05-59.38
			c-130.992-33.136-265.082,37.032-314.922,164.627C79.466,946.3,75.538,999.894,85.873,1054.809
			c1.626,8.639,4.852,11.864,14.328,11.771c76.094-0.75,152.194-0.877,228.293-1.11c20.603-0.063,35.284,11.415,37.73,29.134
			c2.827,20.485-12.622,38.29-34.248,38.602c-27.269,0.394-54.548,0.16-81.822,0.182c-60.61,0.05-121.22,0.106-181.83,0.126
			c-20.928,0.007-32.63-7.421-37.844-27.632c-6.362-24.661-10.641-49.86-15.823-74.826c-0.602-2.902-1.214-5.801-1.822-8.702
			c0-16.164,0-32.327,0-48.491c0.581-2.893,1.348-5.763,1.717-8.682c18.235-144.317,94.334-243.225,231.077-294.571
			c2.216-0.832,4.409-1.722,6.834-2.672c-1.02-1.176-1.19-1.505-1.46-1.661c-2.029-1.176-4.091-2.293-6.117-3.473
			C165.743,616.72,124.2,547.716,129.215,456.36c5.131-93.472,54.926-158.946,141.579-194.627
			c19.251-7.927,40.789-10.302,61.273-15.233C343.517,246.5,354.966,246.5,366.415,246.5z M195.784,468.359
			c0.294,84.702,69.233,153.496,153.756,153.432c84.291-0.064,153.65-69.4,153.752-153.702
			c0.103-84.861-69.498-154.074-154.505-153.643C263.88,314.877,195.49,383.674,195.784,468.359z"/>
		<path d="M517.949,1135.5c-5.572-7.433-10.351-15.66-16.859-22.154c-22.577-22.528-45.137-45.145-68.91-66.379
			c-17.137-15.306-37.574-25.891-59.751-32.681c-4.031-1.234-7.921-2.926-13.531-5.025c39.967-24.184,78.441-47.465,118.234-71.545
			c11.201,21.572,22.239,42.832,33.984,65.452c44.697-82.277,92.548-160.492,183.925-202.104
			c-1.623,18.237-2.548,34.58-4.632,50.773c-4.023,31.256-3.693,61.685,13.422,89.698c0,0.673,0,1.347,0,2.02
			c-21.391,1.19-37.794,12.649-53.185,26.031c-36.223,31.492-67.286,67.7-94.798,106.819
			c-13.227,18.806-23.996,39.342-35.878,59.094C519.296,1135.5,518.623,1135.5,517.949,1135.5z"/>
	</g>
</g>
</svg>
