<?xml version="1.0" encoding="utf-8"?>
<!-- Generator: Adobe Illustrator 17.0.0, SVG Export Plug-In . SVG Version: 6.00 Build 0)  -->
<!DOCTYPE svg PUBLIC "-//W3C//DTD SVG 1.1//EN" "http://www.w3.org/Graphics/SVG/1.1/DTD/svg11.dtd">
<svg version="1.1" id="Capa_1" xmlns="http://www.w3.org/2000/svg" xmlns:xlink="http://www.w3.org/1999/xlink" x="0px" y="0px"
	 width="720px" height="1280px" viewBox="0 0 720 1280" enable-background="new 0 0 720 1280" xml:space="preserve">
<g id="MBjWxZ.tif">
	<g>
		<path d="M187.051,773.499c14.567,50.199,28.801,99.199,43,148.209c6.849,23.641,13.5,47.339,20.564,70.915
			c1.175,3.921,3.329,8.022,6.189,10.881c11.104,11.103,41.627,12.251,52.713,1.22c3.93-3.911,6.326-11.153,6.373-16.9
			c0.462-56.314,0.232-112.634,0.299-168.952c0.037-31.676,21.273-49.804,52.335-44.869c16.714,2.655,28.609,14.717,31.407,32.276
			c0.762,4.78,0.887,9.7,0.892,14.556c0.059,54.796,0.025,109.592,0.048,164.388c0.006,14.007,13.83,27.644,30.277,29.991
			c17.661,2.521,30.255-4.785,34.752-20.561c20.072-70.429,40.045-140.887,60.061-211.332c0.824-2.902,1.718-5.783,2.848-9.573
			c2.785,1.156,5.241,2.01,7.551,3.159c25.041,12.452,50.587,24.005,74.975,37.63c53.303,29.779,81.818,75.828,84.433,136.873
			c1,23.334,1.443,47.106-1.809,70.121c-6.215,43.98-44.867,75.965-89.402,76.019c-164.387,0.202-328.775,0.232-493.162-0.011
			c-50.427-0.075-91.142-40.982-91.334-91.302c-0.098-25.528-2.014-51.576,2.214-76.485c8.763-51.614,36.56-91.492,83.797-116.149
			c23.98-12.518,48.376-24.238,72.596-36.295C181.064,776.114,183.541,775.087,187.051,773.499z"/>
		<path d="M547.234,487.839c-4.682,67.805-35.073,134.132-97.21,183.654c-60.05,47.859-132.473,45.567-191.804-6.195
			c-56.417-49.22-87.071-112.306-89.355-187.239c-3.468-113.748,99.158-204.908,212.203-190.223
			C477.18,300.323,548.541,381.483,547.234,487.839z"/>
	</g>
</g>
</svg>
