<?xml version="1.0" encoding="utf-8"?>
<!-- Generator: Adobe Illustrator 17.0.0, SVG Export Plug-In . SVG Version: 6.00 Build 0)  -->
<!DOCTYPE svg PUBLIC "-//W3C//DTD SVG 1.1//EN" "http://www.w3.org/Graphics/SVG/1.1/DTD/svg11.dtd">
<svg version="1.1" id="Capa_1" xmlns="http://www.w3.org/2000/svg" xmlns:xlink="http://www.w3.org/1999/xlink" x="0px" y="0px"
	 width="720px" height="1280px" viewBox="0 0 720 1280" enable-background="new 0 0 720 1280" xml:space="preserve">
<g id="VjVgoD.tif">
	<g>
		<path d="M253.806,660.922c-63.346-43.55-98.063-101.962-97.475-178.833c0.444-58.099,22.765-107.314,64.716-147.31
			c83.912-80.002,217.523-74.142,295.815,12.278c82.686,91.271,69.119,244.998-47.442,315.535c5.208,2.001,9.878,3.657,14.441,5.568
			c119.002,49.859,191.509,137.929,215.545,264.761c8.736,46.101,6.189,92.439-5.053,138.102
			c-4.97,20.188-23.865,34.544-44.298,34.234c-21.142-0.32-38.854-15.005-43.796-35.941c-0.806-3.414-2.943-6.514-5.339-11.621
			c2.729-13.626,7.214-29.803,9.054-46.275c8.132-72.81-11.59-137.906-60.069-192.508
			c-64.897-73.094-147.419-101.331-242.768-81.105c-95.053,20.163-157.912,79.812-188.603,172.084
			c-15.629,46.989-15.248,94.74-0.276,141.935c6.006,18.932-5.72,47.836-33.087,54.821c-23.983,6.12-49.08-8.482-55.951-32.248
			c-2.387-8.257-7.367-15.897-8.941-24.238c-26.423-140,39.884-285.146,163.698-357.071c19.919-11.571,41.849-19.683,62.861-29.368
			C248.784,662.823,250.818,662.115,253.806,660.922z M361.577,629.117c75.639,0.016,137.213-61.276,137.524-136.893
			c0.312-75.887-61.411-137.677-137.498-137.648c-75.955,0.03-137.169,61.01-137.304,136.781
			C224.162,567.635,285.413,629.101,361.577,629.117z"/>
	</g>
</g>
</svg>
