<?xml version="1.0" encoding="utf-8"?>
<!-- Generator: Adobe Illustrator 17.0.0, SVG Export Plug-In . SVG Version: 6.00 Build 0)  -->
<!DOCTYPE svg PUBLIC "-//W3C//DTD SVG 1.1//EN" "http://www.w3.org/Graphics/SVG/1.1/DTD/svg11.dtd">
<svg version="1.1" id="Capa_1" xmlns="http://www.w3.org/2000/svg" xmlns:xlink="http://www.w3.org/1999/xlink" x="0px" y="0px"
	 width="720px" height="1280px" viewBox="0 0 720 1280" enable-background="new 0 0 720 1280" xml:space="preserve">
<g id="QvfEAd.tif">
	<g>
		<path d="M357.267,647.671c-12.134-3.961-23.973-6.303-34.412-11.471c-90.034-44.578-179.8-89.697-269.701-134.543
			c-6.936-3.46-12.323-7.784-12.285-16.107c0.038-8.291,5.382-12.583,12.346-16.056c89.047-44.41,178.059-88.893,266.989-133.536
			c25.704-12.903,50.92-12.613,76.554,0.265c88.631,44.525,177.362,88.852,266.112,133.139c6.886,3.436,12.53,7.594,12.65,15.88
			c0.12,8.252-5.163,12.797-12.112,16.266c-90.43,45.137-180.723,90.552-271.326,135.34
			C381.411,642.122,369.101,644.086,357.267,647.671z"/>
		<path d="M333.926,883.266c0.002,50.14,0.028,100.28-0.012,150.42c-0.015,18.578-9.862,24.906-26.71,17.141
			c-81.555-37.587-163.131-75.129-244.608-112.885c-27.397-12.696-41.379-34.404-41.39-64.764
			c-0.034-95.579-0.04-191.158-0.011-286.737c0.005-17.022,10.547-23.791,26.082-16.63
			c85.817,39.553,171.603,79.175,257.385,118.805c19.623,9.065,29.371,24.339,29.307,46.111
			C333.825,784.239,333.924,833.752,333.926,883.266z"/>
		<path d="M382.344,882.643c0.001-48.887,0.212-97.776-0.091-146.661c-0.143-22.988,10.041-38.513,30.778-48.044
			c85.289-39.203,170.476-78.626,255.721-117.924c16.125-7.433,26.236-0.876,26.245,17.028c0.046,95.268,0.02,190.536,0.052,285.804
			c0.01,30.779-14.096,52.515-41.895,65.375c-81.22,37.572-162.465,75.09-243.725,112.574c-17.262,7.963-27.07,1.486-27.078-17.73
			C382.329,982.924,382.343,932.784,382.344,882.643z"/>
	</g>
</g>
</svg>
