<?xml version="1.0" encoding="utf-8"?>
<!-- Generator: Adobe Illustrator 17.0.0, SVG Export Plug-In . SVG Version: 6.00 Build 0)  -->
<!DOCTYPE svg PUBLIC "-//W3C//DTD SVG 1.1//EN" "http://www.w3.org/Graphics/SVG/1.1/DTD/svg11.dtd">
<svg version="1.1" id="Capa_1" xmlns="http://www.w3.org/2000/svg" xmlns:xlink="http://www.w3.org/1999/xlink" x="0px" y="0px"
	 width="720px" height="1280px" viewBox="0 0 720 1280" enable-background="new 0 0 720 1280" xml:space="preserve">
<g id="LC6J8u.tif">
	<g>
		<path d="M705.247,708.526c-3.044,29.577-6.874,59.099-8.938,88.744c-2.73,39.22-17.45,55.756-56.7,61.803
			c-3.524,0.543-8.149,4.05-9.457,7.307c-13.013,32.399-36.608,51.561-71.411,51.626c-35.017,0.065-58.605-18.767-70.001-52.409
			c-0.996-2.942-4.976-5.951-8.169-6.891c-16.692-4.914-32.983-14.738-51.009-1.938c-4.672,3.318-12.991,1.943-19.637,1.965
			c-43.727,0.141-87.456,0.252-131.182-0.066c-9.575-0.07-15.136,1.229-19.078,12.223c-10.118,28.22-40.772,47.96-69.517,47.589
			c-31.687-0.409-56.711-19.067-68.94-50.055c-1.654-4.191-7.93-8.824-12.45-9.258c-35.162-3.379-50.632-22.344-46.748-58.12
			c1.811-16.686,2.859-33.454,4.326-51.075c-6.143-0.359-11.644,0.912-14.925-1.224c-5.747-3.742-13.939-9.493-14.047-14.554
			c-0.115-5.367,7.269-11.876,12.789-15.995c3.025-2.257,8.964-0.708,13.589-0.709c64.305-0.022,128.611-0.013,192.916-0.019
			c4.115,0,8.26,0.258,12.34-0.136c14.12-1.366,25.418-13.723,24.719-26.758c-0.717-13.374-10.708-22.528-26.111-22.598
			c-51.443-0.234-102.888-0.097-154.332-0.108c-4.115-0.001-9.201,1.479-12.144-0.39c-6.172-3.921-14.352-8.747-16.021-14.776
			c-2.779-10.039,5.078-15.78,15.113-16.973c4.065-0.483,8.218-0.293,12.33-0.294c49.901-0.016,99.802,0.004,149.703-0.033
			c5.136-0.004,10.327,0.106,15.397-0.562c14.256-1.877,23.615-12.643,23.096-26.054c-0.525-13.584-10.377-22.795-25.531-23.236
			c-11.822-0.345-23.662-0.081-35.495-0.081c-68.935-0.002-137.871-0.136-206.806,0.127c-11.693,0.044-21.86-2.494-21.6-15.689
			c0.247-12.573,9.872-16.093,21.807-16.054c79.738,0.261,159.477,0.14,239.216,0.119c5.141-0.001,10.375,0.375,15.403-0.435
			c12.433-2.003,21.396-13.067,20.187-25.178c-1.315-13.176-9.039-20.699-22.352-20.814c-36.522-0.316-73.049-0.182-109.574-0.205
			c-27.721-0.018-55.443-0.004-86.014-0.004c1.723-11.558,0.961-23.119,5.608-31.777c3.112-5.798,13.855-10.407,21.264-10.527
			c54.002-0.872,108.025-0.47,162.042-0.47c55.045,0,110.091-0.018,165.136,0.006c41.108,0.018,59.408,20.832,54.006,61.41
			c-0.877,6.589-1.952,13.151-3.329,22.358c9.541,0,17.997-0.012,26.454,0.002c25.722,0.045,51.454,0.542,77.162-0.038
			c12.476-0.281,19.761,4.548,25.281,15.688c15.947,32.184,32.708,63.968,49.371,95.793c5.711,10.908,8.817,24.334,24.781,26.056
			c2.723,0.294,4.999,4.729,7.482,7.251C705.247,698.235,705.247,703.38,705.247,708.526z M493.735,581.584
			c-0.862,2.246-1.741,3.597-1.874,5.018c-6.957,74.178-14.093,148.342-20.234,222.588c-0.431,5.216,6.532,11.045,10.057,16.588
			c3.949-3.62,9.275-6.517,11.623-10.979c14.741-28.015,37.727-43.922,69.122-43.699c30.168,0.214,52.876,15.048,65.419,43.316
			c2.932,6.609,4.81,15.276,14.179,11.516c7.291-2.926,18.163-8.376,19.02-13.99c4.836-31.688,7.127-63.764,10.235-95.202
			c-3.117-1.039-4.063-1.627-5.012-1.631c-27.261-0.124-54.522-0.178-81.784-0.266c-37.63-0.121-55.772-21.889-51.082-59.681
			c3.003-24.201,4.346-48.608,6.542-74.202c-13.341,0-24.596-0.049-35.85,0.029C500.601,581.014,497.109,581.381,493.735,581.584z
			 M232.888,844.283c0.284-22.678-16.475-40.278-38.882-40.834c-23.454-0.582-43.75,18.95-43.815,42.167
			c-0.061,21.515,18.345,39.891,40.248,40.183C213.515,886.106,232.598,867.443,232.888,844.283z M601.444,843.379
			c-0.004-22.167-17.684-39.828-40.019-39.976c-23.044-0.153-42.106,18.514-42.507,41.626c-0.398,22.9,17.875,41.183,40.734,40.755
			C582.796,885.35,601.448,866.424,601.444,843.379z"/>
	</g>
</g>
</svg>
