<?xml version="1.0" encoding="utf-8"?>
<!-- Generator: Adobe Illustrator 17.0.0, SVG Export Plug-In . SVG Version: 6.00 Build 0)  -->
<!DOCTYPE svg PUBLIC "-//W3C//DTD SVG 1.1//EN" "http://www.w3.org/Graphics/SVG/1.1/DTD/svg11.dtd">
<svg version="1.1" id="Layer_1" xmlns="http://www.w3.org/2000/svg" xmlns:xlink="http://www.w3.org/1999/xlink" x="0px" y="0px"
	 width="763.462px" height="244.488px" viewBox="0 0 763.462 244.488" enable-background="new 0 0 763.462 244.488"
	 xml:space="preserve">
<path fill="#FFFFFF" d="M62.39,54.403v139h139v-139H62.39z M109.148,173.403H92.516c-5.905,0-10.692-5.095-10.692-11
	s4.787-11,10.692-11h16.632c5.905,0,10.692,5.095,10.692,11S115.053,173.403,109.148,173.403z M140.037,135.403h-47.52
	c-5.905,0-10.692-5.095-10.692-11s4.787-11,10.692-11h47.52c5.905,0,10.692,5.095,10.692,11S145.942,135.403,140.037,135.403z
	 M170.925,93.403H92.516c-5.905,0-10.692-4.595-10.692-10.5s4.787-10.5,10.692-10.5h78.409c5.905,0,10.692,4.595,10.692,10.5
	C181.617,88.808,176.83,93.403,170.925,93.403z"/>
<path fill="#EC4524" d="M181.39,123.903c0,5.799-4.701,10.5-10.5,10.5l0,0c-5.799,0-10.5-4.701-10.5-10.5l0,0
	c0-5.799,4.701-10.5,10.5-10.5l0,0C176.689,113.403,181.39,118.104,181.39,123.903L181.39,123.903z"/>
<path fill="#FFFFFF" d="M685.472,105.806c-3.952,0-7.155,3.204-7.155,7.155v4.369v0.515c-7.97-8.887-19.214-13.83-32-13.83
	c-25.328,0-45.171,19.984-45.171,45.495c0,25.512,19.842,45.496,45.171,45.496c12.784,0,24.03-4.945,32-13.831v2.476v2.408
	c0,3.952,3.204,7.155,7.155,7.155c3.952,0,7.155-3.203,7.155-7.155v-2.408V117.33v-4.369
	C692.628,109.009,689.424,105.806,685.472,105.806z M646.968,181.185c-17.67,0-31.511-13.913-31.511-31.674
	s13.841-31.674,31.511-31.674c17.578,0,31.349,13.913,31.349,31.674S664.546,181.185,646.968,181.185z M527.102,105.806
	c-3.952,0-7.155,3.204-7.155,7.155v4.369v0.515c-7.97-8.887-19.214-13.83-32-13.83c-25.328,0-45.171,19.984-45.171,45.495
	c0,25.512,19.842,45.496,45.171,45.496c12.784,0,24.03-4.945,32-13.831v2.476v2.408c0,3.952,3.204,7.155,7.155,7.155
	c3.952,0,7.155-3.203,7.155-7.155v-2.408V117.33v-4.369C534.257,109.009,531.053,105.806,527.102,105.806z M488.598,181.185
	c-17.67,0-31.511-13.913-31.511-31.674s13.841-31.674,31.511-31.674c17.578,0,31.349,13.913,31.349,31.674
	S506.176,181.185,488.598,181.185z M432.849,139.58v19.527v15.036v11.918c0,3.952-3.204,7.155-7.155,7.155s-7.155-3.203-7.155-7.155
	v-11.918v-15.036V139.58c0-13.818-7.627-21.744-20.929-21.744c-15.959,0-25.487,10.989-25.487,29.395v28.245v10.665
	c0,3.907-3.167,7.074-7.074,7.074s-7.074-3.167-7.074-7.074v-10.665v-57.396v-5.201c0-3.907,3.167-7.074,7.074-7.074
	s7.074,3.167,7.074,7.074v1.793c6.445-7.007,15.321-10.657,26.138-10.657C419.272,104.016,432.849,117.975,432.849,139.58z
	 M327.809,82.598c0-5.157,4.269-9.353,9.516-9.353s9.516,4.196,9.516,9.353c0,5.247-4.269,9.515-9.516,9.515
	S327.809,87.845,327.809,82.598z M344.399,112.88v14.211v45.493v13.558c0,3.907-3.167,7.074-7.074,7.074s-7.074-3.167-7.074-7.074
	v-13.558v-45.493V112.88c0-3.907,3.167-7.074,7.074-7.074S344.399,108.973,344.399,112.88z M316.253,134.044
	c0,3.907-3.167,7.074-7.074,7.074h-7.641h-7.641h-30.231v7.64v18.57v18.57c0,4.041-3.276,7.318-7.318,7.318
	s-7.318-3.276-7.318-7.318v-18.57v-18.57V73.245h46.82h10.161h5.121c3.907,0,7.074,3.167,7.074,7.074
	c0,3.907-3.167,7.074-7.074,7.074h-5.121h-10.161h-32.184v39.578h30.231h7.641h7.641
	C313.086,126.97,316.253,130.137,316.253,134.044z M600,187.258c0,3.76-3.048,6.808-6.808,6.808c0,0-6.669,0.057-7.346,0.057
	c-8.206,0-14.225-1.909-18.397-5.838c-4.37-4.114-6.495-10.194-6.495-18.586v-46.26v-3.649h-8.421h-2.495
	c-3.862,0-6.992-3.13-6.992-6.992c0-3.862,3.13-6.992,6.992-6.992h2.495h8.421v-4.827V89.158c0-3.952,3.204-7.155,7.155-7.155
	c3.952,0,7.155,3.204,7.155,7.155v7.612v9.036h8.302h8.963c3.862,0,6.992,3.131,6.992,6.992c0,3.862-3.13,6.992-6.992,6.992h-8.963
	h-8.302v3.649v46.26c0,9.136,2.939,10.763,11.219,10.763c0.468,0,6.709-0.012,6.709-0.012C596.951,180.449,600,183.497,600,187.258z
	"/>
</svg>
