<?xml version="1.0" encoding="utf-8"?>
<!-- Generator: Adobe Illustrator 17.0.0, SVG Export Plug-In . SVG Version: 6.00 Build 0)  -->
<!DOCTYPE svg PUBLIC "-//W3C//DTD SVG 1.1//EN" "http://www.w3.org/Graphics/SVG/1.1/DTD/svg11.dtd">
<svg version="1.1" id="Capa_1" xmlns="http://www.w3.org/2000/svg" xmlns:xlink="http://www.w3.org/1999/xlink" x="0px" y="0px"
	 width="720px" height="1280px" viewBox="0 0 720 1280" enable-background="new 0 0 720 1280" xml:space="preserve">
<g id="_x34_OtNgY.tif">
	<g>
		<path d="M146.477,826.908c-40.185,0-79.185,0.175-118.183-0.094c-13.891-0.096-23.115-10.517-23.127-25.15
			c-0.05-63.543-0.023-127.086-0.023-190.63c0-52.503-0.004-105.006,0.005-157.509c0.003-17.957,9.157-27.03,27.254-27.03
			c217.372,0.003,434.744,0.007,652.115,0.021c18.08,0.001,27.281,9.081,27.284,26.983c0.016,115.555,0.015,231.111,0,346.666
			c-0.002,17.49-9.289,26.752-26.803,26.763c-37.776,0.024-75.553,0.007-114.522,0.007c0-2.551,0-4.871,0-7.19
			c0-16.928,0.092-33.858-0.024-50.785c-0.148-21.491-14.634-36.202-36.043-36.216c-117.52-0.076-235.041-0.075-352.561,0.008
			c-20.416,0.014-35.196,14.963-35.342,35.412C146.368,787.485,146.477,806.809,146.477,826.908z M417.873,685.584
			c-0.425-1.983-0.567-3.45-1.051-4.793c-24.355-67.504-48.768-134.987-73.037-202.522c-1.302-3.624-3.063-4.848-6.848-4.751
			c-9.808,0.253-19.647,0.459-29.434-0.062c-5.505-0.293-7.573,1.915-9.297,6.752c-16.61,46.603-33.449,93.123-50.236,139.663
			c-7.795,21.61-15.617,43.209-23.751,65.71c16.493,0,32.108,0.133,47.713-0.206c1.564-0.034,3.724-2.669,4.485-4.55
			c3.487-8.624,6.375-17.494,9.96-26.074c0.8-1.914,3.529-4.272,5.398-4.298c22.066-0.298,44.138-0.192,66.601-0.192
			c3.806,10.273,7.383,20.423,11.414,30.388c0.81,2.003,3.312,4.67,5.098,4.718C389.077,685.756,403.281,685.584,417.873,685.584z
			 M634.947,685.598c-1.847-3.237-2.976-5.345-4.223-7.381c-19.584-31.976-39.086-64.002-58.886-95.844
			c-2.839-4.566-2.992-7.795-0.099-12.462c18.204-29.37,36.058-58.957,54.005-88.486c1.343-2.21,2.512-4.526,4.332-7.828
			c-17.211,0-33.305,0.167-49.39-0.111c-4.31-0.074-6.564,1.508-8.65,5.06c-8.937,15.214-18.131,30.276-27.272,45.369
			c-1.068,1.764-2.383,3.379-4.027,5.686c-10.608-17.556-20.664-34.348-30.938-51.006c-1.253-2.031-3.65-4.72-5.567-4.762
			c-17.097-0.372-34.205-0.216-52.606-0.216c2.039,3.426,3.471,5.879,4.948,8.305c17.843,29.305,35.594,58.667,53.645,87.844
			c2.81,4.543,2.998,7.773,0.083,12.451c-19.826,31.826-39.309,63.866-58.876,95.854c-1.343,2.196-2.466,4.528-4.089,7.531
			c9.821,0,18.627,0.047,27.432-0.013c9.064-0.062,19.8,2.73,26.72-1.182c6.903-3.903,10.03-14.541,14.725-22.279
			c8.09-13.334,16.112-26.709,24.643-40.865c1.856,2.798,3.238,4.717,4.453,6.737c10.609,17.64,21.098,35.355,31.898,52.877
			c1.29,2.093,4.197,4.464,6.404,4.514C600.269,685.769,616.939,685.598,634.947,685.598z M240.528,474.132
			c-63.112,0-125.508,0-187.908,0c0,15.67,0,30.784,0,46.721c23.518,0,46.667,0,70.623,0c0,55.373,0,109.922,0,164.339
			c15.946,0,31.061,0,46.99,0c0-54.973,0-109.523,0-164.884c23.962,0,47.109,0,70.295,0
			C240.528,504.548,240.528,489.61,240.528,474.132z"/>
		<path d="M358.485,956.491c-57.398-0.001-114.797-0.003-172.195,0.001c-12.997,0.001-16.226-3.109-16.231-15.834
			c-0.023-56.172-0.034-112.344-0.035-168.515c0-12.675,3.293-15.883,16.243-15.882c114.797,0.005,229.593,0.012,344.39,0.029
			c13.264,0.002,16.268,3.104,16.267,16.539c-0.006,55.681,0.001,111.362-0.003,167.044c-0.001,13.431-3.109,16.616-16.244,16.617
			C473.28,956.495,415.882,956.491,358.485,956.491z M204.814,855.614c0.185,0.009,0.37,0.017,0.556,0.026
			c0,8.331-0.088,16.662,0.016,24.992c0.36,28.986,23.685,52.143,52.603,52.297c29.313,0.156,52.95-22.91,53.332-52.293
			c0.21-16.169,0.18-32.344,0.009-48.513c-0.285-26.995-20.682-49.279-47.453-52.094c-27.037-2.843-52.217,15.115-57.099,41.939
			C204.782,832.939,205.391,844.384,204.814,855.614z M365.548,918.79c43.477-31.625,86.208-62.708,129.519-94.213
			c-4.816-6.419-9.301-12.398-14.133-18.838c-43.385,31.555-86.243,62.726-129.488,94.18
			C356.316,906.436,360.687,912.285,365.548,918.79z M382.047,779.833c-20.071-0.011-35.324,15.215-35.339,35.277
			c-0.014,20.003,15.35,35.408,35.279,35.372c20.024-0.036,35.308-15.293,35.37-35.308
			C417.419,795.238,402.038,779.844,382.047,779.833z M511.579,897.772c0.127-19.96-15.187-35.422-35.155-35.495
			c-20.092-0.074-35.417,15.091-35.493,35.122c-0.076,20.028,15.218,35.497,35.124,35.526
			C496.108,932.955,511.452,917.771,511.579,897.772z"/>
		<path d="M324.053,557.438c5.478,15,10.956,29.999,16.616,45.496c-11.868,0-22.846,0-35,0c5.618-15.476,11.052-30.448,16.487-45.42
			C322.789,557.489,323.421,557.464,324.053,557.438z"/>
		<path d="M287.807,857.218c0,7.603,0.137,15.21-0.028,22.809c-0.367,16.846-13.077,29.396-29.541,29.344
			c-16.17-0.051-28.906-12.349-29.225-28.833c-0.313-16.182-0.321-32.379-0.008-48.56c0.311-16.062,12.885-28.292,28.732-28.59
			c16.202-0.305,29.254,11.747,29.955,28.08c0.368,8.568,0.065,17.166,0.065,25.75C287.774,857.218,287.791,857.218,287.807,857.218
			z"/>
		<path d="M382.435,826.896c-6.33,0.2-11.833-4.854-12.154-11.164c-0.338-6.627,5.044-12.299,11.695-12.328
			c6.339-0.027,11.633,5.147,11.79,11.523C393.922,821.218,388.735,826.696,382.435,826.896z"/>
		<path d="M476.47,909.339c-6.362,0.096-11.747-5.01-11.968-11.349c-0.231-6.638,5.235-12.224,11.882-12.141
			c6.33,0.079,11.553,5.349,11.605,11.709C488.042,903.863,482.781,909.243,476.47,909.339z"/>
	</g>
</g>
</svg>
