<?xml version="1.0" encoding="utf-8"?>
<!-- Generator: Adobe Illustrator 17.0.0, SVG Export Plug-In . SVG Version: 6.00 Build 0)  -->
<!DOCTYPE svg PUBLIC "-//W3C//DTD SVG 1.1//EN" "http://www.w3.org/Graphics/SVG/1.1/DTD/svg11.dtd">
<svg version="1.1" id="Capa_1" xmlns="http://www.w3.org/2000/svg" xmlns:xlink="http://www.w3.org/1999/xlink" x="0px" y="0px"
	 width="720px" height="1280px" viewBox="0 0 720 1280" enable-background="new 0 0 720 1280" xml:space="preserve">
<g id="SzemQl.tif">
	<g>
		<path d="M409.562,580.657c0,113.487,0.041,226.974-0.117,340.461c-0.008,5.974,1.732,9.768,6.399,13.76
			c55.654,47.611,77.16,107.709,57.754,178.43c-19.496,71.052-68.262,114.138-141.136,125.765
			c-110.867,17.688-208.047-73.715-198.684-185.56c4.015-47.96,25.577-87.395,62.804-117.913c5.436-4.457,7.307-8.878,7.302-15.69
			c-0.151-224.892-0.144-449.783-0.087-674.675c0.012-47.867,30.221-88.277,74.946-100.719
			c66.111-18.392,130.621,30.514,130.759,99.586C409.726,356.286,409.562,468.472,409.562,580.657z M366.916,594.237
			c0-114.001,0.004-228.002-0.016-342.003c-0.001-4.681,0.005-9.382-0.391-14.039c-3.467-40.833-46.586-66.749-83.813-49.77
			c-25.055,11.427-36.349,31.934-36.337,59.411c0.095,229.824-0.057,459.648,0.286,689.472c0.017,11.112-3.001,17.449-12.488,23.669
			c-52.796,34.611-72.398,99.685-48.309,157.204c24.235,57.869,86.089,90.666,146.945,77.916
			c53.187-11.143,92.77-51.862,102.925-105.878c9.436-50.191-13.532-102.079-58.764-130.744
			c-7.909-5.012-10.273-10.289-10.248-19.33C367.026,824.842,366.918,709.539,366.916,594.237z"/>
		<path d="M454.689,515.699c0-14.288,0-28.504,0-43.464c44.188,0,88.429,0,132.98,0c0,14.466,0,28.69,0,43.464
			C543.313,515.699,499.255,515.699,454.689,515.699z"/>
		<path d="M454.632,694.442c0-14.943,0-29.155,0-43.766c44.315,0,88.181,0,132.694,0c0,14.375,0,28.779,0,43.766
			C543.375,694.442,499.325,694.442,454.632,694.442z"/>
		<path d="M587.415,337.469c-44.387,0-88.249,0-132.669,0c0-14.385,0-28.572,0-43.403c44.051,0,88.08,0,132.669,0
			C587.415,308.294,587.415,322.455,587.415,337.469z"/>
		<path d="M454.707,828.933c44.575,0,88.26,0,132.605,0c0,14.612,0,29.023,0,44.033c-43.926,0-88.006,0-132.605,0
			C454.707,858.479,454.707,844.038,454.707,828.933z"/>
		<path fill="#F01629" d="M283.569,583.714c15.518,0,30.236,0,46.189,0c0,3.288,0,6.556,0,9.824
			c0,125.162,0.072,250.325-0.185,375.486c-0.015,7.228,2.086,10.192,8.899,12.567c42.746,14.899,68.259,57.481,60.932,100.714
			c-7.858,46.366-46.036,79.132-92.442,79.337c-45.016,0.199-84.138-31.865-92.351-75.691
			c-8.593-45.851,16.288-89.064,60.529-104.343c6.396-2.209,8.633-4.94,8.618-11.962c-0.259-125.162-0.189-250.325-0.19-375.487
			C283.569,590.841,283.569,587.524,283.569,583.714z"/>
	</g>
</g>
</svg>
